<?xml version="1.0" encoding="utf-8"?>
<!-- Generator: Adobe Illustrator 24.0.2, SVG Export Plug-In . SVG Version: 6.00 Build 0)  -->
<svg version="1.1" id="Layer_1" xmlns="http://www.w3.org/2000/svg" xmlns:xlink="http://www.w3.org/1999/xlink" x="0px" y="0px"
	 viewBox="0 0 255.12 55.55" style="enable-background:new 0 0 255.12 55.55;" xml:space="preserve">
<style type="text/css">
	.st0{fill:#FFFFFF;}
</style>
<g>
	<g>
		<g>
			<g>
				<g>
					<path class="st0" d="M65.78,32.16c2.83-4.37,4.6-9.1,3.58-14.44C68.05,10.85,62.08,6.6,54.85,7.29
						c-6.3,0.6-11.39,6.35-11.42,12.92c-0.03,5.24,2.09,9.68,5.17,13.75c0.8,1.05,1.69,2.03,2.62,3.13
						c1.42-1.27,2.65-2.37,3.88-3.47c-0.76-0.95-1.38-1.68-1.96-2.44c-2.23-2.94-3.99-6.09-4.32-9.88c-0.4-4.64,3.03-8.67,7.52-8.78
						c4.58-0.1,8.14,3.64,7.94,8.35c-0.14,3.33-1.49,6.22-3.33,8.91c-3.45,5.03-8.03,8.89-13.03,12.27
						c-0.36,0.24-1.24,0.19-1.59-0.09c-3-2.39-6.08-4.71-8.85-7.35c-3.44-3.28-6.13-7.12-7.17-11.91
						c-1.06-4.88,1.68-9.46,6.32-10.03c1.77-0.22,3.64,0.36,5.58,0.59c0.77-1.13,1.7-2.5,2.69-3.96c-7.12-4.88-17.35-0.97-19.65,7.4
						c-1.27,4.64-0.18,8.97,1.99,13.05c4.27,8.01,11,13.59,18.6,18.22c0.71,0.43,2.19,0.34,2.94-0.12
						C55.49,43.76,61.46,38.82,65.78,32.16z"/>
				</g>
				<g>
					<path class="st0" d="M73.13,7.34c-1.8,0.22-3.47,0.83-4.94,1.88c1.05,1.47,1.99,2.8,3.03,4.26c0.25-0.11,0.47-0.2,0.68-0.29
						c5.57-2.32,11.41,1.61,11,7.61c-0.15,2.18-0.79,4.49-1.8,6.43c-3.34,6.45-8.81,10.92-14.67,14.96c-0.27,0.19-0.91,0.1-1.25-0.1
						c-0.98-0.57-1.88-1.26-2.85-1.93c-1.25,1.31-2.43,2.54-3.74,3.91c1.8,1.22,3.59,2.41,5.35,3.63c1.31,0.9,2.62,0.95,3.87-0.02
						c3.75-2.91,7.67-5.64,11.14-8.85c4.39-4.06,7.71-8.92,9.03-14.93C90.09,14.21,82.87,6.12,73.13,7.34z"/>
				</g>
				<g>
					<path class="st0" d="M28.56,42.09c-0.33,0.2-0.97,0.29-1.25,0.1c-5.86-4.04-11.34-8.51-14.67-14.96
						c-1.01-1.95-1.65-4.25-1.8-6.43c-0.41-6,5.43-9.93,11-7.61c0.21,0.09,0.43,0.18,0.68,0.29c1.04-1.46,1.98-2.78,3.03-4.26
						c-1.47-1.06-3.14-1.66-4.94-1.88C10.87,6.12,3.65,14.21,5.76,23.9c1.31,6.01,4.64,10.87,9.03,14.93
						c3.47,3.21,7.39,5.94,11.14,8.85c1.24,0.97,2.56,0.92,3.87,0.02c1.77-1.22,3.56-2.41,5.35-3.63c-1.31-1.37-2.48-2.6-3.74-3.91
						C30.44,40.83,29.54,41.52,28.56,42.09z"/>
				</g>
			</g>
			<g>
				<rect x="96.19" y="39.63" class="st0" width="116" height="3"/>
			</g>
		</g>
	</g>
	<g>
		<g>
			<path class="st0" d="M96.16,13.67h10.87v2.68h-3.8v9.93h-3.28v-9.93h-3.8V13.67z"/>
		</g>
		<g>
			<path class="st0" d="M111.71,26.29h-3.29V13.67h3.17v4.93h0.1c0.42-1.19,1.45-1.9,2.84-1.9c2,0,3.31,1.46,3.31,3.55v6.03h-3.29
				v-5.35c0-0.98-0.51-1.56-1.41-1.55c-0.86-0.01-1.43,0.58-1.43,1.55V26.29z"/>
		</g>
		<g>
			<path class="st0" d="M119.57,16.83h3.19v1.78h0.11c0.34-1.31,1.14-1.91,2.16-1.9c0.29-0.01,0.59,0.04,0.85,0.1v2.84
				c-0.32-0.11-0.88-0.17-1.24-0.17c-1.03,0-1.79,0.73-1.78,1.83v4.98h-3.29V16.83z"/>
		</g>
		<g>
			<path class="st0" d="M126.35,21.58c0.01-2.93,1.87-4.88,4.79-4.88c2.81,0,4.66,1.8,4.67,4.84v0.78h-6.2v0.12
				c0,0.98,0.62,1.67,1.67,1.67c0.72,0,1.29-0.31,1.5-0.85h3.01c-0.32,1.95-2,3.19-4.58,3.19C128.2,26.46,126.36,24.64,126.35,21.58
				z M132.77,20.48c-0.01-0.85-0.67-1.46-1.55-1.45c-0.88-0.01-1.58,0.59-1.6,1.45H132.77z"/>
		</g>
		<g>
			<path class="st0" d="M136.87,21.58c0.01-2.93,1.87-4.88,4.79-4.88c2.81,0,4.66,1.8,4.67,4.84v0.78h-6.2v0.12
				c0,0.98,0.62,1.67,1.67,1.67c0.72,0,1.29-0.31,1.5-0.85h3.01c-0.32,1.95-2,3.19-4.58,3.19
				C138.71,26.46,136.88,24.64,136.87,21.58z M143.28,20.48c-0.01-0.85-0.67-1.46-1.55-1.45c-0.88-0.01-1.58,0.59-1.6,1.45H143.28z"
				/>
		</g>
		<g>
			<path class="st0" d="M151.6,13.67h5.37c2.82,0,4.67,1.77,4.67,4.43c0,2.7-1.9,4.4-4.77,4.39h-1.95v3.8h-3.31V13.67z M156.2,19.91
				c1.25-0.01,1.98-0.71,1.97-1.81c0.01-1.1-0.72-1.77-1.97-1.78h-1.29v3.59H156.2z"/>
		</g>
		<g>
			<path class="st0" d="M162.43,21.58c0.01-2.91,1.83-4.88,4.88-4.88c3.05,0,4.87,1.97,4.86,4.88c0.01,2.91-1.81,4.88-4.86,4.88
				C164.26,26.46,162.43,24.49,162.43,21.58z M167.32,24.02c0.92-0.01,1.49-0.96,1.48-2.46c0.01-1.52-0.56-2.47-1.48-2.46
				c-0.97-0.01-1.52,0.94-1.53,2.46C165.8,23.06,166.36,24.01,167.32,24.02z"/>
		</g>
		<g>
			<path class="st0" d="M175.24,12.77c0.9,0,1.64,0.68,1.64,1.52c0,0.85-0.74,1.52-1.64,1.52c-0.91,0.01-1.65-0.67-1.64-1.52
				C173.59,13.44,174.33,12.77,175.24,12.77z M173.6,16.83h3.29v9.46h-3.29V16.83z"/>
		</g>
		<g>
			<path class="st0" d="M181.95,26.29h-3.29v-9.46h3.12v1.78h0.1c0.41-1.18,1.5-1.9,2.89-1.9c2,0,3.31,1.47,3.29,3.55v6.03h-3.29
				v-5.35c0.02-0.98-0.5-1.56-1.39-1.55c-0.87-0.01-1.43,0.58-1.43,1.55V26.29z"/>
		</g>
		<g>
			<path class="st0" d="M195.36,19.21h-1.66v4.04c0,0.44,0.22,0.62,0.68,0.65c0.24,0.01,0.72-0.02,1.1-0.05v2.46
				c-0.3,0.06-0.83,0.11-1.57,0.12c-2.29-0.01-3.53-0.87-3.5-2.84v-4.37h-1.22v-2.39h1.22v-2.27h3.29v2.27h1.66V19.21z"/>
		</g>
		<g>
			<path class="st0" d="M200.85,18.92c-0.62-0.01-1.12,0.24-1.12,0.66c-0.01,0.29,0.21,0.56,0.96,0.7l1.88,0.35
				c1.93,0.35,2.86,1.17,2.88,2.56c-0.02,2-1.91,3.28-4.51,3.28c-2.86,0-4.5-1.27-4.71-3.19h3.28c0.1,0.61,0.65,0.95,1.45,0.96
				c0.66-0.01,1.13-0.24,1.15-0.66c-0.02-0.38-0.36-0.59-1.12-0.73l-1.66-0.3c-1.92-0.35-2.88-1.3-2.88-2.77
				c0-1.96,1.66-3.07,4.32-3.07c2.69,0,4.33,1.19,4.43,3.17h-3.03C202.11,19.28,201.55,18.91,200.85,18.92z"/>
		</g>
		<g>
			<path class="st0" d="M210.67,24.44l6.01-8.09h-5.99v-2.68h10.21v1.85l-6.01,8.09h6v2.68h-10.21V24.44z"/>
		</g>
		<g>
			<path class="st0" d="M222.3,21.58c0.01-2.93,1.87-4.88,4.79-4.88c2.81,0,4.66,1.8,4.67,4.84v0.78h-6.2v0.12
				c0,0.98,0.62,1.67,1.67,1.67c0.72,0,1.29-0.31,1.5-0.85h3.01c-0.32,1.95-2,3.19-4.58,3.19C224.14,26.46,222.3,24.64,222.3,21.58z
				 M228.71,20.48c-0.01-0.85-0.67-1.46-1.55-1.45c-0.88-0.01-1.58,0.59-1.6,1.45H228.71z"/>
		</g>
		<g>
			<path class="st0" d="M233.17,16.83h3.19v1.78h0.1c0.34-1.31,1.14-1.91,2.16-1.9c0.29-0.01,0.59,0.04,0.85,0.1v2.84
				c-0.32-0.11-0.88-0.17-1.24-0.17c-1.03,0-1.79,0.73-1.78,1.83v4.98h-3.29V16.83z"/>
		</g>
		<g>
			<path class="st0" d="M239.96,21.58c0.01-2.91,1.83-4.88,4.88-4.88c3.05,0,4.87,1.97,4.86,4.88c0.01,2.91-1.81,4.88-4.86,4.88
				C241.79,26.46,239.97,24.49,239.96,21.58z M244.85,24.02c0.92-0.01,1.49-0.96,1.48-2.46c0.01-1.52-0.56-2.47-1.48-2.46
				c-0.97-0.01-1.52,0.94-1.53,2.46C243.33,23.06,243.89,24.01,244.85,24.02z"/>
		</g>
	</g>
	<g>
		<g>
			<path class="st0" d="M214.69,43.75h3.5c0.03,0.78,0.78,1.35,1.84,1.35c1.05,0,1.77-0.59,1.77-1.44c0-0.84-0.83-1.43-2.04-1.44
				h-1.33v-2.41h1.33c1.1,0,1.87-0.59,1.86-1.42c0.01-0.8-0.64-1.37-1.57-1.37c-1.01,0-1.75,0.58-1.77,1.41h-3.32
				c0.01-2.4,2.13-4.09,5.09-4.09c2.9,0,4.94,1.62,4.93,3.83c0.01,1.48-1.12,2.49-2.68,2.66v0.11c2.1,0.24,3.18,1.39,3.17,3.01
				c0.01,2.32-2.25,3.96-5.46,3.96C216.92,47.92,214.71,46.19,214.69,43.75z"/>
		</g>
		<g>
			<path class="st0" d="M227.12,34.52h5.62c2.96,0,4.89,1.85,4.89,4.64c0,2.83-1.99,4.61-5,4.6h-2.04v3.98h-3.47V34.52z
				 M231.93,41.05c1.31-0.01,2.07-0.74,2.06-1.9c0.01-1.15-0.76-1.85-2.06-1.86h-1.35v3.76H231.93z"/>
		</g>
		<g>
			<path class="st0" d="M239.02,45.8l6.3-8.47h-6.28v-2.81h10.69v1.93l-6.3,8.47h6.28v2.81h-10.69V45.8z"/>
		</g>
	</g>
</g>
</svg>
